<?xml version="1.0" encoding="UTF-8"?><svg xmlns="http://www.w3.org/2000/svg" xmlns:xlink="http://www.w3.org/1999/xlink" data-name="Layer 1" height="59.0" preserveAspectRatio="xMidYMid meet" version="1.0" viewBox="2.0 2.0 60.0 59.0" width="60.0" zoomAndPan="magnify"><g id="change1_1"><path d="M27,61H21a1,1,0,0,1-.994-.89l-.526-4.733a16.809,16.809,0,0,1-3.861-1.6L11.9,56.751a1,1,0,0,1-1.331-.073L6.322,52.435A1,1,0,0,1,6.249,51.1l2.977-3.723a16.809,16.809,0,0,1-1.6-3.861L2.89,42.994A1,1,0,0,1,2,42V36a1,1,0,0,1,.89-.994l4.733-.526a16.809,16.809,0,0,1,1.6-3.861L6.249,26.9a1,1,0,0,1,.073-1.331l4.243-4.243a1,1,0,0,1,1.331-.073l3.723,2.977a16.809,16.809,0,0,1,3.861-1.6l.526-4.733A1,1,0,0,1,21,17h6a1,1,0,0,1,.994.89l.526,4.733a16.809,16.809,0,0,1,3.861,1.6L36.1,21.249a1,1,0,0,1,1.331.073l4.243,4.243a1,1,0,0,1,.073,1.331l-2.977,3.723a16.809,16.809,0,0,1,1.6,3.861l4.733.526A1,1,0,0,1,46,36v6a1,1,0,0,1-.89.994l-4.733.526a16.809,16.809,0,0,1-1.6,3.861L41.751,51.1a1,1,0,0,1-.073,1.331l-4.243,4.243a1,1,0,0,1-1.331.073l-3.723-2.977a16.809,16.809,0,0,1-3.861,1.6l-.526,4.733A1,1,0,0,1,27,61ZM21.9,59h4.21l.5-4.533a1,1,0,0,1,.769-.864,14.858,14.858,0,0,0,4.556-1.891,1,1,0,0,1,1.155.067l3.565,2.852,2.977-2.977-2.852-3.565a1,1,0,0,1-.067-1.155A14.858,14.858,0,0,0,38.6,42.378a1,1,0,0,1,.864-.769l4.533-.5V36.9l-4.533-.5a1,1,0,0,1-.864-.769,14.858,14.858,0,0,0-1.891-4.556,1,1,0,0,1,.067-1.155l2.852-3.565-2.977-2.977-3.565,2.852a1,1,0,0,1-1.155.067A14.858,14.858,0,0,0,27.378,24.4a1,1,0,0,1-.769-.864L26.105,19H21.9l-.5,4.533a1,1,0,0,1-.769.864,14.858,14.858,0,0,0-4.556,1.891,1,1,0,0,1-1.155-.067l-3.565-2.852L8.369,26.346l2.852,3.565a1,1,0,0,1,.067,1.155A14.858,14.858,0,0,0,9.4,35.622a1,1,0,0,1-.864.769L4,36.9v4.21l4.533.5a1,1,0,0,1,.864.769,14.858,14.858,0,0,0,1.891,4.556,1,1,0,0,1-.067,1.155L8.369,51.654l2.977,2.977,3.565-2.852a1,1,0,0,1,1.155-.067A14.858,14.858,0,0,0,20.622,53.6a1,1,0,0,1,.769.864ZM45,42h0Z"/></g><g id="change1_2"><path d="M24,46a7,7,0,1,1,7-7A7.008,7.008,0,0,1,24,46Zm0-12a5,5,0,1,0,5,5A5.006,5.006,0,0,0,24,34Z"/></g><g id="change1_3"><path d="M54.7,32.93a1,1,0,0,1-.624-.22l-2.711-2.168a13.028,13.028,0,0,1-3.393,1.3,1,1,0,0,1-.449-1.949,11.076,11.076,0,0,0,3.4-1.411,1,1,0,0,1,1.155.067l2.549,2.04,1.967-1.967-2.04-2.549a1,1,0,0,1-.067-1.155,11.076,11.076,0,0,0,1.411-3.4,1,1,0,0,1,.864-.769L60,20.391V17.609l-3.242-.36a1,1,0,0,1-.864-.769,11.076,11.076,0,0,0-1.411-3.4,1,1,0,0,1,.067-1.155l2.04-2.549L54.623,7.41,52.074,9.45a1,1,0,0,1-1.155.067,11.076,11.076,0,0,0-3.4-1.411,1,1,0,0,1-.769-.864L46.391,4H43.609l-.36,3.242a1,1,0,0,1-.769.864,11.076,11.076,0,0,0-3.4,1.411,1,1,0,0,1-1.155-.067L35.377,7.41,33.41,9.377l2.04,2.549a1,1,0,0,1,.067,1.155,11.076,11.076,0,0,0-1.411,3.4,1,1,0,0,1-1.949-.449,13.028,13.028,0,0,1,1.3-3.393l-2.169-2.71A1,1,0,0,1,31.363,8.6L34.6,5.363a1,1,0,0,1,1.332-.074l2.71,2.169a13.037,13.037,0,0,1,2.7-1.121l.384-3.447A1,1,0,0,1,42.714,2h4.572a1,1,0,0,1,.993.89l.384,3.447a13.037,13.037,0,0,1,2.7,1.121l2.71-2.169a1,1,0,0,1,1.332.074L58.637,8.6a1,1,0,0,1,.074,1.332l-2.169,2.71a13.037,13.037,0,0,1,1.121,2.7l3.447.384a1,1,0,0,1,.89.993v4.572a1,1,0,0,1-.89.993l-3.447.384a13.037,13.037,0,0,1-1.121,2.7l2.169,2.71a1,1,0,0,1-.074,1.332L55.4,32.637A1,1,0,0,1,54.7,32.93Z"/></g><g id="change1_4"><path d="M45,24.571A5.571,5.571,0,1,1,50.571,19,5.577,5.577,0,0,1,45,24.571Zm0-9.142A3.571,3.571,0,1,0,48.571,19,3.575,3.575,0,0,0,45,15.429Z"/></g></svg>