<?xml version="1.0" encoding="UTF-8"?><svg xmlns="http://www.w3.org/2000/svg" xmlns:xlink="http://www.w3.org/1999/xlink" data-name="Layer 1" height="56.5" preserveAspectRatio="xMidYMid meet" version="1.0" viewBox="4.0 4.0 56.6 56.5" width="56.6" zoomAndPan="magnify"><g id="change1_1"><path d="M41.79,55.35a1,1,0,0,1-.71-.3l-9.89-9.9a1,1,0,0,1,0-1.41L45.33,29.6a1,1,0,0,1,1.41,0l9.9,9.9a1,1,0,0,1,.29.7,1,1,0,0,1-.29.71L42.5,55.05A1,1,0,0,1,41.79,55.35Zm-8.48-10.9,8.48,8.48L54.52,40.2,46,31.72Z" fill="#231f20"/></g><g id="change1_2"><path d="M26.77,60.47a1,1,0,0,1-.94-1.33l5.12-15a1,1,0,0,1,1.65-.38l9.9,9.9a1,1,0,0,1,.27.93,1,1,0,0,1-.65.72l-15,5.12A1,1,0,0,1,26.77,60.47Zm5.55-14.18L28.38,57.86,40,53.92Z" fill="#231f20"/></g><g id="change1_3"><path d="M26.77,60.47a1,1,0,0,1-.94-1.33l2.22-6.54a1,1,0,0,1,1.08-.67,5.94,5.94,0,0,1,3.47,1.71,6.06,6.06,0,0,1,1.71,3.47,1,1,0,0,1-.67,1.08L27.1,60.41A1,1,0,0,1,26.77,60.47Zm2.89-6.37-1.28,3.76,3.76-1.28a4,4,0,0,0-2.48-2.48Z" fill="#231f20"/></g><g id="change1_4"><path d="M55.93,41.62,44.62,30.3l3.54-3.53a3.08,3.08,0,0,1,4.24,0l7.07,7.07a3,3,0,0,1,0,4.24ZM47.45,30.3l8.48,8.49,2.13-2.12a1,1,0,0,0,0-1.42L51,28.18a1,1,0,0,0-1.41,0Z" fill="#231f20"/></g><g id="change1_5"><path d="M41.79,55.35a1,1,0,0,1-.71-.3l-2.82-2.82a1,1,0,0,1,0-1.42L52.4,36.67a1,1,0,0,1,1.41,0l2.83,2.83a1,1,0,0,1,.29.7,1,1,0,0,1-.29.71L42.5,55.05A1,1,0,0,1,41.79,55.35Zm-1.41-3.83,1.41,1.41L54.52,40.2l-1.41-1.41Z" fill="#231f20"/></g><g id="change1_6"><path d="M34.72,48.28h0A1,1,0,0,1,34,48l-2.82-2.83a1,1,0,0,1,0-1.41L45.33,29.6a1,1,0,0,1,1.41,0l2.83,2.83a1,1,0,0,1,.29.7,1,1,0,0,1-.29.71L35.43,48A1,1,0,0,1,34.72,48.28Zm-1.41-3.83,1.41,1.41L47.45,33.13,46,31.72Z" fill="#231f20"/></g><g id="change1_7"><path d="M23,60H5a1,1,0,0,1-1-1V53a1,1,0,0,1,1-1h9V48H5a1,1,0,0,1-1-1V41a1,1,0,0,1,1-1H20V37a1,1,0,0,1,2,0v4a1,1,0,0,1-1,1H6v4h9a1,1,0,0,1,1,1v6a1,1,0,0,1-1,1H6v4H23a1,1,0,0,1,0,2Z" fill="#231f20"/></g><g id="change1_8"><path d="M25,30H17a1,1,0,0,1-1-1V27a1,1,0,0,0-.41-.8A9,9,0,1,1,30,18.05h0a9,9,0,0,1-3.55,8.14,1,1,0,0,0-.4.8v2A1,1,0,0,1,25,30Zm-7-2h6V27a3,3,0,0,1,1.2-2.39,7,7,0,0,0-.35-11.44,7,7,0,0,0-6-.83,6.94,6.94,0,0,0-4.85,6,7.06,7.06,0,0,0,2.77,6.24A3,3,0,0,1,18,27Z" fill="#231f20"/></g><g id="change1_9"><path d="M23,34H19a3,3,0,0,1-3-3V29a1,1,0,0,1,1-1h8a1,1,0,0,1,1,1v2A3,3,0,0,1,23,34Zm-5-4v1a1,1,0,0,0,1,1h4a1,1,0,0,0,1-1V30Z" fill="#231f20"/></g><g id="change1_10"><path d="M21,8a1,1,0,0,1-1-1V5a1,1,0,0,1,2,0V7A1,1,0,0,1,21,8Z" fill="#231f20"/></g><g id="change1_11"><path d="M12.51,11.51a1,1,0,0,1-.7-.29L10.39,9.81a1,1,0,0,1,1.42-1.42l1.41,1.42a1,1,0,0,1,0,1.41A1,1,0,0,1,12.51,11.51Z" fill="#231f20"/></g><g id="change1_12"><path d="M9,20H7a1,1,0,0,1,0-2H9a1,1,0,0,1,0,2Z" fill="#231f20"/></g><g id="change1_13"><path d="M11.1,29.9a1,1,0,0,1-.71-.29,1,1,0,0,1,0-1.42l1.42-1.41a1,1,0,1,1,1.41,1.41l-1.41,1.42A1,1,0,0,1,11.1,29.9Z" fill="#231f20"/></g><g id="change1_14"><path d="M30.9,29.9a1,1,0,0,1-.71-.29l-1.41-1.42a1,1,0,1,1,1.41-1.41l1.42,1.41a1,1,0,0,1,0,1.42A1,1,0,0,1,30.9,29.9Z" fill="#231f20"/></g><g id="change1_15"><path d="M35,20H33a1,1,0,0,1,0-2h2a1,1,0,0,1,0,2Z" fill="#231f20"/></g><g id="change1_16"><path d="M29.49,11.51a1,1,0,0,1-.71-.29,1,1,0,0,1,0-1.41l1.41-1.42a1,1,0,0,1,1.42,1.42l-1.42,1.41A1,1,0,0,1,29.49,11.51Z" fill="#231f20"/></g><g id="change1_17"><path d="M25,20a1,1,0,0,1-1-1,3,3,0,0,0-3-3,1,1,0,0,1,0-2,5,5,0,0,1,5,5A1,1,0,0,1,25,20Z" fill="#231f20"/></g></svg>