<?xml version="1.0" encoding="UTF-8"?><svg xmlns="http://www.w3.org/2000/svg" xmlns:xlink="http://www.w3.org/1999/xlink" height="61.3" preserveAspectRatio="xMidYMid meet" version="1.0" viewBox="3.0 3.0 60.5 61.3" width="60.5" zoomAndPan="magnify"><g><g id="change1_1"><path d="M59.34,53.71c-0.11-0.11-0.22-0.21-0.35-0.31l-11.2-9.36c2.64-4.28,2.67-9.71,0.08-14.01V15.68c0-0.01,0-0.02,0-0.02 c0-0.03-0.02-0.06-0.02-0.1c0-0.02-0.01-0.05-0.01-0.06c-0.04-0.23-0.13-0.44-0.3-0.59L35.93,3.29C35.74,3.11,35.48,3,35.21,3H8 C5.24,3,3,5.24,3,8v48c0,2.76,2.24,5,5,5h34.87c2.76,0,5-2.24,5-5v-2.17l4.86,5.81C56.78,64.3,63.52,58.24,59.34,53.71z M47.81,36.97c0,3.06-1.19,5.94-3.36,8.1s-5.04,3.36-8.1,3.36c-3.06,0-5.94-1.19-8.1-3.36c-4.47-4.47-4.47-11.74,0-16.2 c2.16-2.16,5.04-3.36,8.1-3.36c3.06,0,5.94,1.19,8.1,3.36S47.81,33.91,47.81,36.97z M45.87,56c0,1.65-1.35,3-3,3H8 c-1.65,0-3-1.35-3-3V8c0-1.65,1.35-3,3-3h26.21v10.66c0,0.55,0.45,1,1,1h10.66v10.8c-2.54-2.54-5.92-3.94-9.51-3.94 c-3.44,0-6.68,1.29-9.18,3.63H11.9c-0.55,0-1,0.45-1,1s0.45,1,1,1h13.53c-1.02,1.43-1.73,3.01-2.13,4.66H11.9c-0.55,0-1,0.45-1,1 s0.45,1,1,1h11.06c-0.13,1.56,0.01,3.13,0.41,4.65H11.9c-0.55,0-1,0.45-1,1s0.45,1,1,1h12.19c0.65,1.46,1.56,2.83,2.76,4.03 c0.22,0.22,0.46,0.43,0.7,0.63H11.9c-0.55,0-1,0.45-1,1s0.45,1,1,1h18.7c1.82,0.86,3.78,1.3,5.76,1.3c2.44,0,4.86-0.67,7.01-1.98 l2.5,2.99V56z"/><path d="M11.9,22.49h13.53c0.55,0,1-0.45,1-1s-0.45-1-1-1H11.9c-0.55,0-1,0.45-1,1S11.35,22.49,11.9,22.49z"/></g></g></svg>