<?xml version="1.0" encoding="UTF-8"?><svg xmlns="http://www.w3.org/2000/svg" xmlns:xlink="http://www.w3.org/1999/xlink" height="128.2" preserveAspectRatio="xMidYMid meet" version="1.0" viewBox="13.8 -0.2 115.4 128.2" width="115.4" zoomAndPan="magnify"><g id="change1_1"><path d="M101.414093,11.5859003c-0.7813034-0.7812004-2.0469055-0.7812004-2.8282013,0l-8,7.999999 c-0.7812042,0.7813015-0.7812042,2.0468998,0,2.8282013C90.976593,22.8047009,91.4882889,23,92,23 c0.5116882,0,1.0233917-0.1952991,1.414093-0.5858994l8-8.000001 C102.1952896,13.6328001,102.1952896,12.3671999,101.414093,11.5859003z" fill="inherit"/></g><g id="change1_2"><path d="M97,29c0.5116882,0,1.0233917-0.1952991,1.414093-0.5858994l8-8c0.7811966-0.7813015,0.7811966-2.0468998,0-2.8282013 c-0.7813034-0.7811985-2.0469055-0.7811985-2.8282013,0l-8,8c-0.7812042,0.7813015-0.7812042,2.0468998,0,2.8282013 C95.976593,28.8047009,96.4882889,29,97,29z" fill="inherit"/></g><g id="change1_3"><path d="M125.7743912,16.4188995l-29.580101,22.9296989L79.7099991,23.1543007L96.1142883,3.2725 C96.8173904,2.4209001,96.6962891,1.1602,95.8437881,0.457c-0.8497009-0.7021-2.1123962-0.581-2.8154984,0.2705L74.2900009,23.4375 L76.75,25.8544998c-0.0635071,0.0478001-0.131813,0.0858994-0.1934128,0.137701 c-6.8417969,5.7821999-16.4774971,6.7880993-22.354496,6.7880993c-0.5946999,0-1.1502991-0.0107994-1.6610909-0.027401 c-0.0449104-0.0009003-0.0898094-0.0018997-0.1347084-0.0018997c-1.9179993,0-3.8721008,1.3143997-4.4179993,3.1553001 L34.1591911,82.4462967C15.1884918,91.847702,14.3895922,95.6406021,14.0858917,97.1006012 c-0.2420998,1.1592026,0.0411081,2.2831955,0.7979002,3.1640015c3.1659994,3.6875,8.9453001,2.5401001,12.7676001,1.7832947 l0.9647999-0.1875c0.5811005-0.1093979,1.5303001-0.3505936,2.8428078-0.6846008 c12.051693-3.0614929,19.0810013-3.8027954,20.8847923-2.2040939c0.1054001,0.0936966,0.2645988,0.2343979,0.1913986,0.7997971 c-0.1973,1.5233994-1.7402992,2.8037033-3.3740997,4.1582031c-1.2860909,1.0653992-2.6161995,2.1688995-3.527298,3.577095 c-2.0137024,3.1114044-2.3389015,5.7022018-0.9657936,7.7012024c2.6415939,3.8486023,10.6825905,4.0400009,26.8934937,0.6406021 c0.5468979-0.1152039,0.9726944-0.2041016,1.2481003-0.2568054c18.9257965-3.5741959,30.7958984-3.0214996,35.2831955,1.6455002 c1.8602982,1.9336014,2.3554001,4.6533051,1.5146027,8.3153992c-0.2470016,1.0762024,0.4247971,2.1494064,1.5019989,2.3965073 C111.2597885,127.9833984,111.4101868,128,111.5585861,128c0.9111023,0,1.7344131-0.6269989,1.9473038-1.5526962 c1.1503983-5.0098038,0.2987976-9.0410004-2.530304-11.9825058c-8.2636948-8.5936966-31.3290939-4.2352982-38.9081955-2.8026962 c-0.2929993,0.0546951-0.7451019,0.1493988-1.3272018,0.2714996c-19.031189,3.9921951-22.2450981,1.7831955-22.7743988,1.0106964 c-0.3456993-0.5028992,0.0479012-1.7528992,1.0264015-3.264595c0.5780983-0.8936005,1.6190987-1.7568054,2.7216988-2.6709061 c2.0566025-1.7061005,4.3885994-3.6386948,4.7881088-6.7235947c0.2850914-2.2041016-0.6602097-3.5577011-1.5039978-4.3067017 c-3.5732117-3.1650009-12.3867111-1.7627029-24.5244102,1.3202972c-1.1473999,0.2919998-2.1395912,0.5439987-2.59659,0.6299057 c-0.3155098,0.0595932-0.6514091,0.1259995-1.0030003,0.1952972c-2.8427086,0.5634995-7.103508,1.410202-8.8349075-0.3339996 c0.2821999-0.7275009,2.5184994-4.3544998,20.0819969-12.8300018l0.330101-0.160202 c0.3847008-0.1865005,0.6796989-0.4804993,0.8720016-0.827095l43.1230965-13.3809052 c1.8730011-0.5819931,3.2627106-2.6415939,3.2197113-4.6083984c-0.2929993-13.7763977,4.1093903-20.6513977,7.1484909-23.7392998 c0.1044006-0.1063995,0.1893997-0.2196999,0.2811966-0.3309975l2.7881012,2.7383003l32.3417969-25.0703011 c0.8730011-0.6767998,1.032196-1.9336014,0.3554993-2.8066998 C127.9032898,15.9013996,126.6454926,15.7440996,125.7743912,16.4188995z M68,56 c-0.3672104,0-0.7227097-0.044899-1.0684128-0.1200981l-26.4178963,25.559597l-2.777401-2.8789978l25.9375-25.0965996 C63.2567902,52.7344017,63,51.9003983,63,51c0-2.7598,2.2382889-5,5-5c2.7597885,0,5,2.2402,5,5S70.7597885,56,68,56z" fill="inherit"/></g></svg>