<?xml version="1.0" encoding="UTF-8"?><svg xmlns="http://www.w3.org/2000/svg" xmlns:xlink="http://www.w3.org/1999/xlink" height="112.0" preserveAspectRatio="xMidYMid meet" version="1.0" viewBox="0.0 8.0 128.0 112.0" width="128.0" zoomAndPan="magnify"><g id="change1_1"><path d="M112,59h-8V48c0-2.2-1.8-4-4-4H76c-2.2,0-4,1.8-4,4v11h-4V48c0-2.2-1.8-4-4-4h-7v-8.6c1.2-0.7,2-2,2-3.4v-6c2.2,0,4-1.8,4-4 V12c0-2.2-1.8-4-4-4H43c-1,0-1.9,0.4-2.6,1H10c-2.2,0-4,1.8-4,4v32.1c-1.7,0.4-3,2-3,3.9v10H2c-1.1,0-2,0.9-2,2s0.9,2,2,2h110 c6.6,0,12,5.4,12,12s-5.4,12-12,12H2c-1.1,0-2,0.9-2,2s0.9,2,2,2h5v27c0,1.1,0.9,2,2,2s2-0.9,2-2v-8h100v8c0,1.1,0.9,2,2,2 s2-0.9,2-2V90.7c7.4-1.4,13-7.9,13-15.7C128,66.2,120.8,59,112,59z M43,12h16v10h-4h-8h-4V12z M47,32v-6h8v6H47z M53,36v8h-4v-8H53z M10,13h29v8H18v24h-8V13z M21,59H7V49h14V59z M36,48v11H25V49c0-1.9-1.3-3.4-3-3.9V25h18.4c0.7,0.6,1.6,1,2.6,1v6 c0,1.5,0.8,2.8,2,3.4V44h-5C37.8,44,36,45.8,36,48z M64,59H40V48h24V59z M100,59H76V48h24V59z M111,106H11V91h100V106z" fill="inherit"/></g><g id="change1_2"><path d="M120,75c0-4.4-3.6-8-8-8s-8,3.6-8,8c0,4.4,3.6,8,8,8S120,79.4,120,75z M108,75c0-2.2,1.8-4,4-4c2.2,0,4,1.8,4,4 c0,2.2-1.8,4-4,4C109.8,79,108,77.2,108,75z" fill="inherit"/></g><g id="change1_3"><path d="M100,75c0-3.9-3.1-7-7-7s-7,3.1-7,7s3.1,7,7,7S100,78.9,100,75z M90,75c0-1.7,1.3-3,3-3s3,1.3,3,3s-1.3,3-3,3S90,76.7,90,75 z" fill="inherit"/></g><g id="change1_4"><path d="M82,75c0-3.9-3.1-7-7-7s-7,3.1-7,7s3.1,7,7,7S82,78.9,82,75z M72,75c0-1.7,1.3-3,3-3s3,1.3,3,3s-1.3,3-3,3S72,76.7,72,75z" fill="inherit"/></g><g id="change1_5"><path d="M64,75c0-3.9-3.1-7-7-7s-7,3.1-7,7s3.1,7,7,7S64,78.9,64,75z M54,75c0-1.7,1.3-3,3-3s3,1.3,3,3s-1.3,3-3,3S54,76.7,54,75z" fill="inherit"/></g><g id="change1_6"><path d="M46,75c0-3.9-3.1-7-7-7s-7,3.1-7,7s3.1,7,7,7S46,78.9,46,75z M36,75c0-1.7,1.3-3,3-3s3,1.3,3,3s-1.3,3-3,3S36,76.7,36,75z" fill="inherit"/></g><g id="change1_7"><path d="M28,75c0-3.9-3.1-7-7-7s-7,3.1-7,7s3.1,7,7,7S28,78.9,28,75z M18,75c0-1.7,1.3-3,3-3s3,1.3,3,3s-1.3,3-3,3S18,76.7,18,75z" fill="inherit"/></g></svg>